<svg width="160" height="42" viewBox="0 0 160 42" xmlns="http://www.w3.org/2000/svg">
  <path d="M14.13 2.1L0 40.34h9.92l2.22-7.14h12.73l2.25 7.14h9.97L22.8 2.1h-8.7zm4.36 10.72l4.1 13.26h-8.3l4.1-13.26zm17.4 13.1c0-2.15.2-4.12.7-5.9.5-1.8 1.2-3.32 2.1-4.6a9.66 9.66 0 0 1 3.5-2.97c1.4-.7 3-1.05 4.8-1.05a7.9 7.9 0 0 1 3.63.8 9.2 9.2 0 0 1 2.82 2.2V0h8.93v40.34h-8L54 37.3a9.72 9.72 0 0 1-3 2.6 8.07 8.07 0 0 1-3.98.97c-1.82 0-3.4-.37-4.8-1.1a10.07 10.07 0 0 1-3.45-3 13.67 13.67 0 0 1-2.12-4.56 21.9 21.9 0 0 1-.72-5.7V26zm8.9.55c0 1.07.04 2.07.2 2.98.12.92.4 1.72.7 2.4a3.7 3.7 0 0 0 3.5 2.2 4.5 4.5 0 0 0 4.23-2.47V20.73c-.8-1.68-2.2-2.52-4.2-2.52-.82 0-1.52.2-2.1.6a4.2 4.2 0 0 0-1.4 1.6c-.34.7-.6 1.5-.75 2.5a18.4 18.4 0 0 0-.25 3.08v.56zm36.2 5.9c0-.38-.1-.7-.28-.98a2.53 2.53 0 0 0-.9-.9c-.4-.26-.98-.5-1.7-.7a32 32 0 0 0-2.76-.7c-1.4-.3-2.7-.7-3.9-1.2a12.72 12.72 0 0 1-3.2-1.78 7.96 7.96 0 0 1-2.17-2.5 6.86 6.86 0 0 1-.78-3.33c0-1.2.26-2.35.78-3.44A8.34 8.34 0 0 1 68.4 14c1-.82 2.24-1.47 3.7-1.95a16 16 0 0 1 5-.7c1.9 0 3.66.2 5.2.65a12.8 12.8 0 0 1 3.97 1.9 8.07 8.07 0 0 1 3.37 6.68H80.7a3.6 3.6 0 0 0-.8-2.5c-.56-.6-1.5-.9-2.8-.9-.47 0-.9.1-1.3.2-.4.13-.74.3-1.04.55a2.38 2.38 0 0 0-1 1.95c0 .78.4 1.4 1.13 1.9a10 10 0 0 0 3.6 1.2c1.46.28 2.85.6 4.18 1 1.32.44 2.5 1 3.52 1.68a8 8 0 0 1 2.45 2.6c.6 1 .9 2.3.9 3.8a7.2 7.2 0 0 1-.86 3.5 8.3 8.3 0 0 1-2.5 2.74 12.8 12.8 0 0 1-3.93 1.83 18.9 18.9 0 0 1-5.2.66c-2.06 0-3.88-.3-5.46-.9a12.7 12.7 0 0 1-4-2.28 9.47 9.47 0 0 1-2.4-3.1 7.9 7.9 0 0 1-.84-3.4h8.3c.04 1.3.48 2.24 1.33 2.84.82.6 1.9.9 3.23.9 1.23 0 2.14-.26 2.75-.75.6-.5.9-1.1.9-1.9m10.9 8h8.94V0h-8.9v40.34zM103 25.78c0-2.07.3-3.98.9-5.75a13 13 0 0 1 2.64-4.6c1.16-1.3 2.6-2.3 4.32-3.03a15.1 15.1 0 0 1 5.9-1.1c2.26 0 4.25.3 5.97 1.1a12 12 0 0 1 4.35 3 13.07 13.07 0 0 1 2.64 4.6c.6 1.74.9 3.7.9 5.72v.56c0 2.1-.3 4-.9 5.8a12.06 12.06 0 0 1-6.96 7.6c-1.72.7-3.7 1.05-5.94 1.05s-4.2-.34-5.93-1.1a12.2 12.2 0 0 1-7-7.55c-.6-1.75-.9-3.7-.9-5.76v-.56zm8.9.55c0 1.07.08 2.07.23 3 .14.92.4 1.73.8 2.4.37.7.87 1.23 1.5 1.63.64.4 1.44.6 2.4.6.92 0 1.7-.2 2.33-.6a4.3 4.3 0 0 0 1.5-1.6c.36-.7.63-1.5.8-2.43.15-.9.23-1.9.23-2.97v-.55c0-1.02-.1-2-.3-2.93a7.5 7.5 0 0 0-.8-2.4 4.54 4.54 0 0 0-1.5-1.65 4.3 4.3 0 0 0-2.4-.6c-.92 0-1.7.2-2.32.6-.64.42-1.14.97-1.5 1.66a7.8 7.8 0 0 0-.8 2.44c-.16.93-.24 1.9-.24 2.94v.55zm48 10.78a4.08 4.08 0 0 1-4.1 4.05 4.08 4.08 0 0 1-4.1-4.06 4.08 4.08 0 0 1 4.1-4.1c2.28 0 4.1 1.8 4.1 4.03m-16.3-32.2v7.05h4.1v6.17h-4.1v13c0 .56.05 1.02.15 1.4.1.36.25.65.48.87.22.22.5.37.88.46a6 6 0 0 0 1.4.14 16.34 16.34 0 0 0 2.2-.15v6.3a16.94 16.94 0 0 1-5 .75c-1.4 0-2.7-.17-3.8-.5a7 7 0 0 1-2.8-1.53 6.6 6.6 0 0 1-1.73-2.7c-.4-1.1-.6-2.44-.6-3.98v-14.1h-4.1V11.9h4.1V4.87h8.9z" fill="#414042" fill-rule="evenodd"/>
</svg>
