<svg xmlns="http://www.w3.org/2000/svg" width="128" height="128" viewBox="0 0 128 128" version="1.1">
  <defs>
    <linearGradient x1="0%" y1="0%" x2="100%" y2="100%" id="gradient-bg">
      <stop stop-color="#1E1D73" offset="0%"/>
      <stop stop-color="#53A0FE" offset="50%"/>
      <stop stop-color="#00ABAD" offset="100%"/>
    </linearGradient>
  </defs>
  <g id="canvas" stroke="none" stroke-width="1" fill="none" fill-rule="evenodd" stroke-linecap="square">
    <g id="icon" transform="translate(7.000000, 14.000000)">
      <path d="M110.997 34.614L110.997 81.396 64.712 97.11 57.211 89.471 33.856 97.11 3 66.226 3 18.502 49.284 3 57.727 10.818 80.141 3 110.997 34.614Z" class="background" stroke="url(#gradient-bg)" stroke-width="20" stroke-linejoin="round" fill="url(#gradient-bg)"/>
      <path d="M33.544 18.371L64.5 49.5" class="line" stroke="#FFFFFF"/>
      <path d="M34.521 98.586L56.512 91.255" class="line" stroke="#FFFFFF"/>
      <path d="M35.521 15.883L80.97 0.244" class="line" stroke="#FFFFFF"/>
      <path d="M35.521 66.286L80.97 50.648" class="line" stroke="#FFFFFF"/>
      <path d="M3.222 66.309L48.671 50.182" class="line" stroke="#FFFFFF"/>
      <path d="M64.5 49.5L111.292 34.521" class="line" stroke="#FFFFFF"/>
      <path d="M35.521 50.159L80.97 34.521" class="line" stroke="#FFFFFF"/>
      <path d="M1.244 17.883L32.521 49.159" class="line" stroke="#FFFFFF"/>
      <path d="M33.544 67.798L63.843 98.586" class="line" stroke="#FFFFFF"/>
      <path d="M50.671 0.733L58.245 7.819" class="line" stroke="#FFFFFF"/>
      <path d="M82.459 50.159L111.292 80.459" class="line" stroke="#FFFFFF"/>
      <path d="M48.671 50.182L56.821 58.332" class="line" stroke="#FFFFFF"/>
      <path d="M64.5 50.159L64.5 96.12" class="line" stroke="#FFFFFF"/>
      <path d="M48.5 46.517L48.5 50.182" class="line" stroke="#FFFFFF"/>
      <path d="M114 33.372L114 82.754 65.143 99.341 65.143 88.811 81.429 82.754 81.429 49.926 32.571 66.74 32.571 99.341 0 66.74 0 16.363 48.857 0 48.857 11.341 32.571 17.039 32.571 49.926 81.429 32.621 81.429 0 114 33.372Z" class="line-heavy" stroke="#FFFFFF" stroke-width="5" stroke-linejoin="round"/>
    </g>
  </g>
</svg>
