<svg xmlns="http://www.w3.org/2000/svg" width="128" height="128" viewBox="0 0 128 128">
  <defs>
    <linearGradient x1="0%" y1="0%" y2="100%" id="a">
      <stop stop-color="#1E1D73" offset="0%"/>
      <stop stop-color="#53A0FE" offset="50%"/>
      <stop stop-color="#00ABAD" offset="100%"/>
    </linearGradient>
  </defs>
  <g fill="none" fill-rule="evenodd" stroke-linecap="square">
    <path d="M111 34.6v46.8L64.7 97.1l-7.5-7.63-23.34 7.64L3 66.27V18.5L49.28 3l8.45 7.82L80.13 3 111 34.6z" class="background" stroke="url(#a)" stroke-width="20" stroke-linejoin="round" fill="url(#a)" transform="translate(7 14)"/>
    <path d="M40.54 32.37L71.5 63.5m-29.98 49.1l22-7.34m-21-75.38l45.45-15.64M42.52 80.3l45.45-15.65M10.22 80.3l45.45-16.1m15.83-.7l46.8-14.98M42.52 64.16l45.45-15.64M8.24 31.88l31.28 31.28m1.02 18.64l30.3 30.8M57.67 14.73l7.57 7.1m24.22 42.33l28.83 30.3M55.64 64.18l8.15 8.15m7.7-8.17v45.96m-16-49.6v3.66" class="line" stroke="#FFF"/>
    <path d="M121 47.37v49.38l-48.86 16.6V102.8l16.3-6.05V63.93l-48.87 16.8v32.6L7 80.73V30.38L55.86 14v11.34l-16.3 5.7v32.9L88.44 46.6V14L121 47.37z" class="line-heavy" stroke="#FFF" stroke-width="5" stroke-linejoin="round"/>
  </g>
</svg>
